<svg width="1200" height="1200" viewBox="0 0 1200 1200" fill="none" xmlns="http://www.w3.org/2000/svg">
  <rect width="1200" height="1200" rx="40" fill="#151310"/>
  <rect x="90" y="115" width="660" height="790" rx="18" fill="#ded0b0"/>
  <path d="M90 115H750V905H90V115Z" fill="url(#grain)"/>
  <rect x="130" y="155" width="580" height="460" rx="8" fill="#27231d"/>
  <path d="M160 560C220 460 277 397 369 362C461 327 529 327 681 252V590H160V560Z" fill="#a65338" opacity=".82"/>
  <path d="M145 180C278 220 392 220 510 184C596 158 647 161 704 194V398C623 356 544 358 469 389C340 442 253 453 145 394V180Z" fill="#efe2c6" opacity=".34"/>
  <rect x="130" y="652" width="350" height="24" fill="#151310"/>
  <rect x="130" y="700" width="510" height="18" fill="#151310" opacity=".74"/>
  <rect x="130" y="736" width="470" height="18" fill="#151310" opacity=".54"/>
  <rect x="130" y="810" width="235" height="34" fill="#151310"/>
  <circle cx="725" cy="670" r="355" fill="#080807"/>
  <circle cx="725" cy="670" r="292" stroke="#27231d" stroke-width="2"/>
  <circle cx="725" cy="670" r="238" stroke="#27231d" stroke-width="2"/>
  <circle cx="725" cy="670" r="178" stroke="#27231d" stroke-width="2"/>
  <circle cx="725" cy="670" r="95" fill="#a65338"/>
  <circle cx="725" cy="670" r="28" fill="#ded0b0"/>
  <path d="M895 357C1022 426 1080 555 1065 694" stroke="#C9B685" stroke-width="14" stroke-linecap="round" opacity=".9"/>
  <path d="M912 388C1010 452 1052 562 1038 680" stroke="#F2E4C7" stroke-width="5" stroke-linecap="round" opacity=".6"/>
  <rect x="809" y="316" width="165" height="34" rx="17" transform="rotate(27 809 316)" fill="#ded0b0"/>
  <rect x="947" y="400" width="42" height="210" rx="21" transform="rotate(27 947 400)" fill="#b8a57b"/>
  <path d="M410 1000H813" stroke="#ded0b0" stroke-width="18" stroke-linecap="round" opacity=".78"/>
  <path d="M470 1048H752" stroke="#a65338" stroke-width="14" stroke-linecap="round"/>
  <defs>
    <pattern id="grain" width="86" height="86" patternUnits="userSpaceOnUse">
      <rect width="86" height="86" fill="#ded0b0"/>
      <circle cx="9" cy="14" r="1.2" fill="#151310" opacity=".16"/>
      <circle cx="39" cy="20" r="1" fill="#151310" opacity=".12"/>
      <circle cx="70" cy="51" r="1.4" fill="#151310" opacity=".1"/>
      <circle cx="22" cy="68" r=".9" fill="#151310" opacity=".18"/>
      <path d="M0 42H86" stroke="#151310" stroke-opacity=".04"/>
    </pattern>
  </defs>
</svg>
